<svg xmlns="http://www.w3.org/2000/svg" viewBox="0 0 33.06 26.76"><defs><style>.cls-1{fill:#fff;}</style></defs><title>アセット 4</title><g id="レイヤー_2" data-name="レイヤー 2"><g id="レイヤー_1-2" data-name="レイヤー 1"><path d="M33.06,19.56A2.07,2.07,0,0,1,31,21.62H15.56L9.38,26.76V21.62H2.06A2.07,2.07,0,0,1,0,19.56V2.06A2.07,2.07,0,0,1,2.06,0H31a2.07,2.07,0,0,1,2.06,2.06Z"/><polygon class="cls-1" points="17.06 10.21 6.1 4.76 5.06 5.53 5.06 16.43 6.1 17.19 17.06 11.75 17.06 10.21"/><polygon class="cls-1" points="29.06 10.21 18.1 4.76 17.06 5.53 17.06 16.43 18.1 17.19 29.06 11.75 29.06 10.21"/></g></g></svg>